<svg width="0" height="0" class="hidden">
  <symbol xmlns="http://www.w3.org/2000/svg" viewBox="0 0 18.94 16.969" id="basket">
    <path d="M5.53 16.978a2.074 2.074 0 110-4.147 2.057 2.057 0 011.46.6 2.031 2.031 0 01.61 1.466 2.07 2.07 0 01-2.07 2.081zm0-2.963a.889.889 0 10.34 1.71.9.9 0 00.55-.824.92.92 0 00-.26-.628.9.9 0 00-.63-.259zm8.39 2.963a2.045 2.045 0 01-1.46-.606 2.068 2.068 0 011.46-3.541 1.954 1.954 0 011.47.6 2.085 2.085 0 01-.67 3.383 2.1 2.1 0 01-.8.164zm0-2.963a.979.979 0 00-.82.549.887.887 0 001.16 1.162.891.891 0 00.29-1.453.9.9 0 00-.63-.259zm-11.27.164a.561.561 0 01-.25-.056.59.59 0 01-.29-.787 3.686 3.686 0 013.05-2.151L4.11 5.794a.591.591 0 111.16-.228l1.09 5.578h9.43l1.8-6.771H4.29A4.346 4.346 0 01.01.68.587.587 0 01.5.007a.6.6 0 01.68.5 3.16 3.16 0 003.11 2.682h14.07a.581.581 0 01.47.232.594.594 0 01.11.513l-2.13 7.956a.59.59 0 01-.57.44H5.88a.035.035 0 00-.02 0 2.66 2.66 0 00-2.68 1.51.586.586 0 01-.53.338z" fill-rule="evenodd"></path>
  </symbol>
  <symbol xmlns="http://www.w3.org/2000/svg" viewBox="0 0 20.03 20.031" id="ellipse">
    <path d="M2.15 4.286a2.146 2.146 0 112.14-2.145 2.145 2.145 0 01-2.14 2.145zm0 7.869a2.146 2.146 0 112.14-2.147 2.146 2.146 0 01-2.14 2.148zm0 7.868a2.146 2.146 0 112.14-2.146 2.145 2.145 0 01-2.14 2.147zm7.86-15.737a2.146 2.146 0 112.15-2.145 2.143 2.143 0 01-2.15 2.145zm0 7.869a2.146 2.146 0 112.15-2.147 2.144 2.144 0 01-2.15 2.148zm0 7.868a2.146 2.146 0 112.15-2.146 2.143 2.143 0 01-2.15 2.147zm7.87-15.737a2.146 2.146 0 112.15-2.145 2.143 2.143 0 01-2.15 2.145zm0 7.869a2.146 2.146 0 112.15-2.147 2.144 2.144 0 01-2.15 2.148zm0 7.868a2.146 2.146 0 112.15-2.146 2.143 2.143 0 01-2.15 2.147z" fill="#fff" fill-rule="evenodd"></path>
  </symbol>
    <symbol xmlns="http://www.w3.org/2000/svg" viewBox="0 0 37 32" id="heart">
    <title>heart</title>
    <path d="M27 0a9.97 9.97 0 00-6.704 2.595A9.97 9.97 0 0018.5 4.749a10 10 0 00-1.796-2.155A9.974 9.974 0 0010 0C4.486 0 0 4.486 0 10c0 3.722 1.158 6.66 3.871 9.825 3.942 4.6 13.919 11.62 14.342 11.917a.496.496 0 00.574 0c.423-.297 10.4-7.317 14.343-11.917C35.842 16.66 37 13.722 37 10c0-5.514-4.486-10-10-10zm5.371 19.175C28.876 23.251 20.191 29.516 18.5 30.72c-1.691-1.204-10.376-7.469-13.87-11.545C2.085 16.206 1 13.462 1 10c0-4.963 4.038-9 9-9 2.227 0 4.37.829 6.032 2.335a9 9 0 012.02 2.664c.17.34.726.34.896 0a8.984 8.984 0 012.02-2.663A8.968 8.968 0 0127 1c4.962 0 9 4.037 9 9 0 3.462-1.085 6.206-3.629 9.175z"></path>
  </symbol>
  <symbol xmlns="http://www.w3.org/2000/svg" viewBox="0 0 15.28 15.281" id="search">
    <path d="M2.98 6.076a.617.617 0 01.75.484 2.585 2.585 0 00.78 1.489A3.039 3.039 0 006 8.826a.635.635 0 01.49.743.649.649 0 01-.72.515 4.212 4.212 0 01-2.14-1.131A4.166 4.166 0 012.5 6.818a.6.6 0 01.48-.742zm3.28-6.08a6.267 6.267 0 016.28 6.256 6.137 6.137 0 01-.57 2.6l2.34 2.036c1.7 1.746.74 3.266.29 3.717-.42.453-1.99 1.414-3.73-.292l-2.06-2.35A6.261 6.261 0 116.26 0zm5.55 13.516a1.352 1.352 0 001.88.226 1.313 1.313 0 00-.23-1.874l-2.16-1.88a6.222 6.222 0 01-1.37 1.34zM6.26 11.2a4.948 4.948 0 10-4.97-4.948A4.962 4.962 0 006.26 11.2z" fill-rule="evenodd"></path>
  </symbol>
  <symbol xmlns="http://www.w3.org/2000/svg" viewBox="0 0 28 28" id="burger-menu">
    <path d="M6 22a3.001 3.001 0 01-6 0 3.001 3.001 0 016 0zm0-8a3.001 3.001 0 01-6 0 3.001 3.001 0 016 0zm22 6.5v3c0 .266-.234.5-.5.5h-19a.514.514 0 01-.5-.5v-3c0-.266.234-.5.5-.5h19c.266 0 .5.234.5.5zM6 6a3.001 3.001 0 01-6 0 3.001 3.001 0 016 0zm22 6.5v3c0 .266-.234.5-.5.5h-19a.514.514 0 01-.5-.5v-3c0-.266.234-.5.5-.5h19c.266 0 .5.234.5.5zm0-8v3c0 .266-.234.5-.5.5h-19a.514.514 0 01-.5-.5v-3c0-.266.234-.5.5-.5h19c.266 0 .5.234.5.5z" fill="#a3bbc8" fill-rule="evenodd"></path>
  </symbol>
    <symbol xmlns="http://www.w3.org/2000/svg" viewBox="0 0 6.1 10.97" id="arrow-sm">
    <path d="M.55 10.97a.53.53 0 01-.41-.19.6.6 0 01-.15-.4.631.631 0 01.17-.43l4.55-4.47L.16 1A.607.607 0 01-.01.58.629.629 0 01.14.17a.559.559 0 01.8-.02l4.98 4.9.01.01a.657.657 0 01.12.17.7.7 0 01.05.25.742.742 0 01-.05.25.61.61 0 01-.12.16c0 .01-.01.01-.01.02l-4.98 4.9a.589.589 0 01-.39.16z" fill-rule="evenodd"></path>
  </symbol>
    <symbol xmlns="http://www.w3.org/2000/svg" viewBox="0 0 67 64" id="24hour">
    <path d="M57.06 53.46a4.359 4.359 0 00-2.21-3.23l-11.59-6.45a4.614 4.614 0 00-5.46.74l-4.07 4.03a2.4 2.4 0 01-3.1.24A75.725 75.725 0 0115.38 33.7a2.362 2.362 0 01.24-3.07l4.07-4.03a4.484 4.484 0 00.75-5.4L13.92 9.74a4.37 4.37 0 00-3.26-2.19A4.685 4.685 0 006.7 8.89l-4.29 4.24c-3.04 3.01-3.2 8.38-.45 15.13 2.62 6.46 7.61 13.53 14.05 19.9S29.6 59.48 36.13 62.07A23.842 23.842 0 0044.78 64a9.073 9.073 0 006.63-2.37l4.29-4.25a4.6 4.6 0 001.36-3.92zm-2.89 2.4l-.75.75-9.88-5.34a1.09 1.09 0 00-1.47.43 1.066 1.066 0 00.43 1.46l9.32 5.03-1.94 1.92c-2.35 2.32-7.06 2.31-12.94-.03-6.27-2.49-13.15-7.26-19.39-13.44S6.49 33.66 3.97 27.46c-2.36-5.82-2.37-10.49-.03-12.81l1.94-1.92 1.04 1.89a1.109 1.109 0 00.96.56 1.095 1.095 0 00.95-1.59l-1.35-2.44.75-.74a2.573 2.573 0 011.8-.76 1.841 1.841 0 01.33.03 2.221 2.221 0 011.67 1.11l6.52 11.47a2.363 2.363 0 01-.39 2.83L16.22 27l-5.08-9.22a1.1 1.1 0 00-1.47-.43 1.078 1.078 0 00-.44 1.46l5.39 9.77-.53.53a4.5 4.5 0 00-.45 5.87 75.017 75.017 0 007.28 8.32 76.9 76.9 0 008.41 7.21 4.624 4.624 0 005.94-.44l.53-.53 2.46 1.33a1.112 1.112 0 00.52.13 1.089 1.089 0 00.96-.56 1.064 1.064 0 00-.44-1.45l-1.9-1.03 1.93-1.92a2.438 2.438 0 012.86-.39l11.59 6.45a2.244 2.244 0 011.13 1.65 2.517 2.517 0 01-.74 2.11zm-2.14-28.37H50.8v-9.24a1.085 1.085 0 00-2.17 0v9.24h-5.67l2.02-9a1.069 1.069 0 00-.82-1.28 1.083 1.083 0 00-1.3.81l-2.31 10.31a1.073 1.073 0 00.21.9 1.091 1.091 0 00.85.41h7.01v3.5a1.09 1.09 0 002.18 0v-3.5h1.22a1.075 1.075 0 10.01-2.15zm-13.89 4.58h-7.99c.47-1.23 1.81-2.01 3.73-3.05 2.38-1.29 5.34-2.88 5.34-6.51a5.729 5.729 0 00-11.43 0 1.085 1.085 0 002.17 0 3.566 3.566 0 017.09 0c0 2.19-1.59 3.21-4.21 4.62-2.36 1.28-5.05 2.73-5.05 6.01a1.084 1.084 0 001.09 1.08h9.26a1.075 1.075 0 100-2.15zm22.93 12.62l-2.11.42A26.086 26.086 0 0067 26.27a26.608 26.608 0 00-48.27-15.11 1.065 1.065 0 00.26 1.5 1.1 1.1 0 001.51-.26 24.436 24.436 0 0144.33 13.87 23.961 23.961 0 01-7.59 17.5l.48-2.4a1.069 1.069 0 00-.85-1.26 1.085 1.085 0 00-1.28.84l-1.16 5.73a1.069 1.069 0 00.3.97 1.107 1.107 0 00.77.31.749.749 0 00.21-.02l5.79-1.14a1.077 1.077 0 10-.43-2.11zM40.45 4.58a1.073 1.073 0 00-1.08 1.07v2.3a1.085 1.085 0 002.17 0v-2.3a1.082 1.082 0 00-1.09-1.07zM61.28 25.2h-2.31a1.075 1.075 0 100 2.15h2.31a1.075 1.075 0 100-2.15zm-36.33-9.02l-2-1.15a1.091 1.091 0 00-1.48.4 1.064 1.064 0 00.39 1.46l2.01 1.15a1.063 1.063 0 00.54.14 1.081 1.081 0 00.94-.53 1.07 1.07 0 00-.4-1.47zm34.09 19.47l-2.01-1.14a1.075 1.075 0 10-1.08 1.86l2 1.14a1.063 1.063 0 00.54.14 1.081 1.081 0 00.94-.53 1.067 1.067 0 00-.39-1.47zM51.41 7.49a1.088 1.088 0 00-1.48.39l-1.16 1.98a1.074 1.074 0 00.94 1.61 1.093 1.093 0 00.94-.53l1.16-1.99a1.059 1.059 0 00-.4-1.46zM31.73 41.21a1.091 1.091 0 00-1.48.4l-1.16 1.98a1.073 1.073 0 00.4 1.47 1.174 1.174 0 00.54.14 1.07 1.07 0 00.94-.54l1.16-1.98a1.073 1.073 0 00-.4-1.47zm27.7-25.78a1.091 1.091 0 00-1.48-.4l-2 1.15a1.07 1.07 0 00-.4 1.47 1.093 1.093 0 00.94.53 1.063 1.063 0 00.54-.14l2.01-1.15a1.056 1.056 0 00.39-1.46zM25.35 34.9a1.079 1.079 0 00-1.48-.39l-2.01 1.14a1.072 1.072 0 00.55 2 1.063 1.063 0 00.54-.14l2-1.14a1.073 1.073 0 00.4-1.47zm6.78-25.04l-1.16-1.98a1.088 1.088 0 00-1.48-.39 1.059 1.059 0 00-.4 1.46l1.16 1.99a1.1 1.1 0 00.94.54 1.048 1.048 0 00.54-.15 1.07 1.07 0 00.4-1.47zm19.68 33.73l-1.16-1.98a1.091 1.091 0 00-1.48-.4 1.073 1.073 0 00-.4 1.47l1.16 1.98a1.07 1.07 0 00.94.54 1.174 1.174 0 00.54-.14 1.073 1.073 0 00.4-1.47z" fill="#243f4d" fill-rule="evenodd"></path>
  </symbol>
  <symbol xmlns="http://www.w3.org/2000/svg" viewBox="0 0 64 57" id="laptop">
    <path d="M60.635 0H3.365A3.368 3.368 0 000 3.36V44.5a3.368 3.368 0 003.365 3.36h21.691l-.877 7h-3.633a1.07 1.07 0 100 2.14h22.908a1.07 1.07 0 100-2.14H39.82l-.877-7h21.692A3.368 3.368 0 0064 44.5V3.36A3.368 3.368 0 0060.635 0zM26.344 54.86l.877-7h9.558l.877 7H26.344zM61.852 44.5a1.213 1.213 0 01-1.217 1.21H3.365a1.212 1.212 0 01-1.217-1.21V3.36a1.221 1.221 0 011.217-1.22h57.27a1.222 1.222 0 011.217 1.22V44.5zM50.327 4.57H5.655a1.072 1.072 0 00-1.073 1.07v35.43a1.072 1.072 0 001.073 1.07h3.437a1.07 1.07 0 100-2.14H6.729V6.71h43.6a1.07 1.07 0 10-.002-2.14zm8.017 0h-3.436a1.07 1.07 0 100 2.14h2.363V40h-43.6a1.07 1.07 0 100 2.14h44.671a1.073 1.073 0 001.074-1.07V5.64a1.073 1.073 0 00-1.072-1.07zm-6.872 5.72a3.352 3.352 0 00-2.97 4.93l-8.6 9.09a3.322 3.322 0 00-1.408-.31 3.361 3.361 0 00-2.314.92l-7.348-3.88a3.364 3.364 0 10-6.684-.54 3.352 3.352 0 00.328 1.45l-8.406 8.14a3.331 3.331 0 00-1.539-.38 3.36 3.36 0 103.036 1.91l8.406-8.14a3.328 3.328 0 003.852-.55l7.348 3.88a3.54 3.54 0 00-.044.55 3.365 3.365 0 106.334-1.58l8.6-9.09a3.316 3.316 0 001.408.31 3.355 3.355 0 10.001-6.71zm-38.944 24a1.215 1.215 0 111.217-1.22 1.222 1.222 0 01-1.217 1.22zm12.981-12.58a1.21 1.21 0 111.217-1.21 1.213 1.213 0 01-1.217 1.21zm12.982 6.86a1.215 1.215 0 111.217-1.21 1.212 1.212 0 01-1.217 1.21zm12.981-13.71a1.215 1.215 0 111.217-1.22 1.222 1.222 0 01-1.217 1.22zm0 4.57a1.073 1.073 0 00-1.074 1.07v16a1.074 1.074 0 002.148 0v-16a1.073 1.073 0 00-1.074-1.07zm-25.963 6.86a1.066 1.066 0 00-1.074 1.07v9.14a1.074 1.074 0 002.148 0v-9.14a1.066 1.066 0 00-1.074-1.07zm12.982 6.85a1.073 1.073 0 00-1.074 1.07v2.29a1.074 1.074 0 002.147 0v-2.29a1.072 1.072 0 00-1.073-1.07z" fill="#243f4d" fill-rule="evenodd"></path>
  </symbol>
  <symbol xmlns="http://www.w3.org/2000/svg" viewBox="0 0 48.03 63.94" id="medal">
    <path d="M32.09 7.95a17.9 17.9 0 00-20.89 3.38 18.376 18.376 0 00-1.5 24.05 1.029 1.029 0 00.79.39.981.981 0 00.62-.22 1.011 1.011 0 00.17-1.41 16.324 16.324 0 011.33-21.38 15.907 15.907 0 0118.58-3.01 1 1 0 001.34-.44 1.018 1.018 0 00-.44-1.36zM40.06 16a.99.99 0 00-1.34-.44 1.007 1.007 0 00-.44 1.35 16.279 16.279 0 01-2.98 18.75A15.948 15.948 0 0114.12 37a.992.992 0 00-1.4.18 1.011 1.011 0 00.17 1.41 17.914 17.914 0 0023.82-1.5A18.316 18.316 0 0040.06 16zm-2.58-3.84c-.24-.28-.5-.56-.77-.83s-.54-.53-.82-.78a1.003 1.003 0 00-1.32 1.51c.25.23.49.46.73.7s.47.49.69.74a.991.991 0 00.74.34 1.05 1.05 0 00.67-.25 1.021 1.021 0 00.08-1.43zm10.04 13.86a3.439 3.439 0 000-3.58l-1.31-2.17a1.412 1.412 0 01-.19-.96l.39-2.51a3.427 3.427 0 00-1.36-3.31l-2.03-1.5a1.384 1.384 0 01-.54-.81l-.6-2.47a3.391 3.391 0 00-2.5-2.53l-2.45-.6a1.448 1.448 0 01-.81-.54l-1.48-2.06a3.365 3.365 0 00-3.28-1.37L28.88 2a1.374 1.374 0 01-.95-.19L25.77.49a3.326 3.326 0 00-3.54 0l-2.15 1.32a1.384 1.384 0 01-.95.19l-2.49-.39a3.373 3.373 0 00-3.28 1.37l-1.48 2.05a1.393 1.393 0 01-.8.55l-2.45.6a3.388 3.388 0 00-2.51 2.53l-.59 2.47a1.415 1.415 0 01-.54.81l-2.04 1.5a3.427 3.427 0 00-1.36 3.31l.39 2.51a1.406 1.406 0 01-.18.96L.48 22.44a3.484 3.484 0 000 3.58l1.32 2.17a1.406 1.406 0 01.18.96l-.39 2.51a3.427 3.427 0 001.36 3.31l2.04 1.5a1.384 1.384 0 01.54.81l.59 2.47a3.391 3.391 0 002.5 2.53l1.03.25-6.93 15.59a1.043 1.043 0 00.11 1.01.981.981 0 00.92.4l5.57-.67 3.21 4.65a1.01 1.01 0 00.82.43h.1a.994.994 0 00.81-.6l7.08-15.92.89.55a3.326 3.326 0 003.54 0l.93-.57 7.08 15.94a1.009 1.009 0 00.82.6h.09a1 1 0 00.82-.43l3.21-4.65 5.57.68a1.015 1.015 0 001.03-1.42l-6.93-15.6.99-.24a3.391 3.391 0 002.5-2.53l.6-2.47a1.384 1.384 0 01.54-.81l2.03-1.5a3.427 3.427 0 001.36-3.31l-.39-2.51a1.412 1.412 0 01.19-.96zM13.16 60.9l-2.54-3.69a.99.99 0 00-.94-.42l-4.41.53 6.31-14.2a1.421 1.421 0 01.3.3l1.48 2.06a3.958 3.958 0 00.47.53l-3.32 7.48a1.005 1.005 0 00.91 1.42 1 1 0 00.91-.6l3.31-7.45a3.725 3.725 0 001-.01l2.49-.39a1.086 1.086 0 01.44 0zm29.62-3.58l-4.42-.53a.983.983 0 00-.93.42l-2.55 3.69-6.41-14.45a1.136 1.136 0 01.41.01l2.48.39a3.3 3.3 0 001.04 0l3.31 7.46a1.012 1.012 0 00.91.6.978.978 0 00.41-.09 1.011 1.011 0 00.5-1.33l-3.33-7.51a3.5 3.5 0 00.44-.5l1.48-2.06a1.518 1.518 0 01.34-.33zm3.04-32.35l-1.32 2.17a3.435 3.435 0 00-.45 2.32l.39 2.51a1.419 1.419 0 01-.56 1.37l-2.04 1.5a3.4 3.4 0 00-1.3 1.96l-.6 2.48a1.383 1.383 0 01-1.03 1.04l-2.45.6a3.357 3.357 0 00-1.95 1.32l-1.48 2.05a1.39 1.39 0 01-1.36.57l-2.48-.4a3.42 3.42 0 00-2.3.46l-2.16 1.33a1.374 1.374 0 01-1.46 0l-2.15-1.33a3.4 3.4 0 00-1.78-.5 4.55 4.55 0 00-.52.04l-2.49.4a1.382 1.382 0 01-1.35-.57l-1.49-2.05a3.357 3.357 0 00-1.95-1.32l-2.45-.6a1.383 1.383 0 01-1.03-1.04l-.59-2.48a3.412 3.412 0 00-1.31-1.96l-2.03-1.5a1.426 1.426 0 01-.57-1.37l.4-2.51a3.5 3.5 0 00-.46-2.32l-1.31-2.17a1.409 1.409 0 010-1.48l1.31-2.17A3.5 3.5 0 003.96 19l-.39-2.52a1.391 1.391 0 01.56-1.36l2.03-1.5a3.467 3.467 0 001.31-1.97l.59-2.47a1.383 1.383 0 011.03-1.04l2.45-.6a3.412 3.412 0 001.96-1.32l1.48-2.05a1.382 1.382 0 011.35-.57l2.49.39a3.331 3.331 0 002.3-.46l2.15-1.32a1.374 1.374 0 011.46 0l2.16 1.32a3.31 3.31 0 002.3.46l2.48-.39a1.39 1.39 0 011.36.57l1.48 2.05a3.389 3.389 0 001.95 1.32l2.45.6a1.383 1.383 0 011.03 1.04l.6 2.47a3.42 3.42 0 001.3 1.97l2.04 1.5a1.411 1.411 0 01.56 1.36L44.05 19a3.435 3.435 0 00.45 2.32l1.32 2.17a1.453 1.453 0 010 1.48zm-10.13-3.88a1.788 1.788 0 00-1.51-1.24l-6.01-.72-2.53-5.55a1.8 1.8 0 00-3.28 0l-2.53 5.55-6.01.72a1.775 1.775 0 00-1.5 1.24 1.818 1.818 0 00.49 1.9l4.44 4.15-1.18 5.99a1.819 1.819 0 001.77 2.18 1.767 1.767 0 00.88-.24L24 32.09l5.28 2.98a1.757 1.757 0 001.94-.11 1.807 1.807 0 00.71-1.83l-1.18-5.99 4.44-4.15a1.8 1.8 0 00.5-1.9zm-6.7 4.95a1.006 1.006 0 00-.3.94l1.2 6.13-5.4-3.05a.947.947 0 00-.49-.13.973.973 0 00-.49.13l-5.4 3.05 1.21-6.13a1.031 1.031 0 00-.3-.94l-4.55-4.24 6.15-.74a1.01 1.01 0 00.79-.58L24 14.81l2.59 5.67a1.01 1.01 0 00.79.58l6.15.74z" fill="#243f4d" fill-rule="evenodd"></path>
  </symbol>
  <symbol xmlns="http://www.w3.org/2000/svg" viewBox="0 0 64 40" id="track">
    <path d="M59.52 16.96l-1.658-6.55a1 1 0 00.793-.97V8.38a4.192 4.192 0 00-4.208-4.16H46.9V2.05A2.063 2.063 0 0044.829 0H6.346a2.063 2.063 0 00-2.071 2.05V20a1 1 0 002 0V2.05a.068.068 0 01.066-.07h38.481a.068.068 0 01.066.07V20a1 1 0 002 0v-1.12h11.826a3.27 3.27 0 013.114 2.24h-3.116a1 1 0 00-1 .99v2.11a3.131 3.131 0 003.14 3.11H62v4.35h-2.621a6.372 6.372 0 00-12 0H46.9v-7.46a1 1 0 00-2 0v7.46H24.1a6.372 6.372 0 00-12 0H6.339a.066.066 0 01-.066-.06v-2.18h4.342a.99.99 0 100-1.98H1a.99.99 0 100 1.98h3.274v2.18a2.061 2.061 0 002.071 2.04h5.413v.07a6.347 6.347 0 0012.693 0v-.07h22.584v.07a6.347 6.347 0 0012.693 0v-.07H63a.994.994 0 001-.99V22.11a5.235 5.235 0 00-4.48-5.15zM46.9 6.2h7.549a2.2 2.2 0 012.2 2.18v.07H46.9V6.2zm0 10.7v-6.47h8.9l1.637 6.47H46.9zM18.1 38.02a4.29 4.29 0 114.343-4.29 4.325 4.325 0 01-4.343 4.29zm35.274 0a4.29 4.29 0 114.342-4.29 4.325 4.325 0 01-4.338 4.29zM62 25.35h-1.14a1.137 1.137 0 01-1.136-1.13V23.1H62v2.25zm-43.892 6.33a2.05 2.05 0 102.071 2.05 2.063 2.063 0 00-2.079-2.05zm35.274 0a2.05 2.05 0 102.071 2.05 2.063 2.063 0 00-2.075-2.05zm-11.758-4.22H26.655a.99.99 0 100 1.98H41.62a.99.99 0 100-1.98zm-25.653-4.23H3.14a.99.99 0 100 1.98h12.827a.99.99 0 100-1.98zM34.85 9.79a1.023 1.023 0 00-1.417 0l-8.911 8.81-4.636-4.58a1 1 0 00-1.417 0 .98.98 0 000 1.4l5.344 5.28a1.01 1.01 0 001.417 0l9.62-9.51a.98.98 0 00-.004-1.4z" fill="#243f4d" fill-rule="evenodd"></path>
  </symbol>
    <symbol xmlns="http://www.w3.org/2000/svg" viewBox="0 0 15 11" id="team-arrow">
    <path d="M8.931 11.01a.673.673 0 00.425-.16l5.434-4.92c.007 0 .013-.01.019-.01l.031-.03v-.01a.567.567 0 00.138-.47.6.6 0 00-.155-.31l-.033-.03L9.355.16a.65.65 0 00-.874.02.578.578 0 00.024.84l4.311 3.89H.631a.608.608 0 00-.617.59.6.6 0 00.617.59h12.186l-4.311 3.9a.566.566 0 00-.024.83.608.608 0 00.449.19z" fill="#fff" fill-rule="evenodd"></path>
  </symbol>
    <symbol xmlns="http://www.w3.org/2000/svg" viewBox="0 0 22.66 14.38" id="google+">
    <path d="M6.72 14.35A7.121 7.121 0 01.13 8.7a6.6 6.6 0 01-.14-1.93A7.277 7.277 0 015.48.21 5.282 5.282 0 016.66.02c.23-.01.46-.02.69-.02a6.786 6.786 0 013.4.93 9.386 9.386 0 011.27.93c-.72.71-1.41 1.4-2.11 2.09a3.914 3.914 0 00-2.1-1.02 4.259 4.259 0 00-.61-.04 4.307 4.307 0 00-4.14 3.35 3.817 3.817 0 00-.1 1.3 4.3 4.3 0 002.94 3.74 4.35 4.35 0 001.25.19c.1 0 .2-.01.3-.01a4.2 4.2 0 002.09-.67 3.314 3.314 0 001.43-2.17H7.12c0-.09.02-1.89.02-2.76l.01-.12h6.76a7.773 7.773 0 01-1.28 6.05 6.273 6.273 0 01-3.55 2.32 7.539 7.539 0 01-1.94.25c-.14 0-.28 0-.42-.01zm13.33-4.05h-1.89v-.07l.02-2.43h-2.51v-.08l.02-1.82v-.07h2.5l.02-2.43v-.07h1.96v.07l-.02 2.43h2.51v.07l-.01 1.82v.08h-2.51l-.02 2.43v.07h-.07z" fill-rule="evenodd"></path>
  </symbol>
  <symbol xmlns="http://www.w3.org/2000/svg" viewBox="0 0 17.19 17.19" id="instagram">
    <path d="M3.59 16.94a4.322 4.322 0 01-3.43-3.75C-.07 11.74-.09 5 .33 3.54A4.387 4.387 0 014.08.19 34.173 34.173 0 018.39 0c1.6 0 3.22.04 4.19.1a4.724 4.724 0 013.14 1.28 4.517 4.517 0 011.38 2.94c.12 1.35.21 7.74-.19 9.24a4.411 4.411 0 01-3.8 3.44 42.333 42.333 0 01-4.74.19 29.143 29.143 0 01-4.78-.25zm.92-15.26a2.958 2.958 0 00-2.75 2.59 57.587 57.587 0 00-.06 8.69 2.8 2.8 0 002.12 2.43 27.569 27.569 0 004.63.25c1.8 0 3.57-.06 4.24-.13a2.941 2.941 0 002.75-2.6 61.315 61.315 0 00.11-8.45 2.9 2.9 0 00-2.58-2.74 40.212 40.212 0 00-4.3-.16c-1.71 0-3.41.04-4.16.12zM4.19 8.6a4.445 4.445 0 014.45-4.41 4.37 4.37 0 014.37 4.41 4.458 4.458 0 01-4.45 4.41A4.37 4.37 0 014.19 8.6zm1.55-.03a2.834 2.834 0 002.81 2.88h.02a2.882 2.882 0 002.88-2.82 2.82 2.82 0 00-2.8-2.88h-.03a2.881 2.881 0 00-2.88 2.82zm6.45-4.55a1.029 1.029 0 011.03-1.03h.01a1.016 1.016 0 011.02 1.04 1.035 1.035 0 01-1.04 1.02 1.014 1.014 0 01-1.02-1.03z" fill-rule="evenodd"></path>
  </symbol>
 <symbol xmlns="http://www.w3.org/2000/svg" viewBox="0 0 28 28" id="tile">
    <title>th</title>
    <path d="M8 19.5v3A1.5 1.5 0 016.5 24h-5A1.5 1.5 0 010 22.5v-3A1.5 1.5 0 011.5 18h5A1.5 1.5 0 018 19.5zm0-8v3A1.5 1.5 0 016.5 16h-5A1.5 1.5 0 010 14.5v-3A1.5 1.5 0 011.5 10h5A1.5 1.5 0 018 11.5zm10 8v3a1.5 1.5 0 01-1.5 1.5h-5a1.5 1.5 0 01-1.5-1.5v-3a1.5 1.5 0 011.5-1.5h5a1.5 1.5 0 011.5 1.5zM8 3.5v3A1.5 1.5 0 016.5 8h-5A1.5 1.5 0 010 6.5v-3A1.5 1.5 0 011.5 2h5A1.5 1.5 0 018 3.5zm10 8v3a1.5 1.5 0 01-1.5 1.5h-5a1.5 1.5 0 01-1.5-1.5v-3a1.5 1.5 0 011.5-1.5h5a1.5 1.5 0 011.5 1.5zm10 8v3a1.5 1.5 0 01-1.5 1.5h-5a1.5 1.5 0 01-1.5-1.5v-3a1.5 1.5 0 011.5-1.5h5a1.5 1.5 0 011.5 1.5zm-10-16v3A1.5 1.5 0 0116.5 8h-5A1.5 1.5 0 0110 6.5v-3A1.5 1.5 0 0111.5 2h5A1.5 1.5 0 0118 3.5zm10 8v3a1.5 1.5 0 01-1.5 1.5h-5a1.5 1.5 0 01-1.5-1.5v-3a1.5 1.5 0 011.5-1.5h5a1.5 1.5 0 011.5 1.5zm0-8v3A1.5 1.5 0 0126.5 8h-5A1.5 1.5 0 0120 6.5v-3A1.5 1.5 0 0121.5 2h5A1.5 1.5 0 0128 3.5z"></path>
  </symbol>
  <symbol xmlns="http://www.w3.org/2000/svg" viewBox="0 0 28 28" id="list">
    <title>th-list</title>
    <path d="M8 19.5v3A1.5 1.5 0 016.5 24h-5A1.5 1.5 0 010 22.5v-3A1.5 1.5 0 011.5 18h5A1.5 1.5 0 018 19.5zm0-8v3A1.5 1.5 0 016.5 16h-5A1.5 1.5 0 010 14.5v-3A1.5 1.5 0 011.5 10h5A1.5 1.5 0 018 11.5zm20 8v3a1.5 1.5 0 01-1.5 1.5h-15a1.5 1.5 0 01-1.5-1.5v-3a1.5 1.5 0 011.5-1.5h15a1.5 1.5 0 011.5 1.5zM8 3.5v3A1.5 1.5 0 016.5 8h-5A1.5 1.5 0 010 6.5v-3A1.5 1.5 0 011.5 2h5A1.5 1.5 0 018 3.5zm20 8v3a1.5 1.5 0 01-1.5 1.5h-15a1.5 1.5 0 01-1.5-1.5v-3a1.5 1.5 0 011.5-1.5h15a1.5 1.5 0 011.5 1.5zm0-8v3A1.5 1.5 0 0126.5 8h-15A1.5 1.5 0 0110 6.5v-3A1.5 1.5 0 0111.5 2h15A1.5 1.5 0 0128 3.5z"></path>
  </symbol>
  <symbol xmlns="http://www.w3.org/2000/svg" viewBox="0 0 22 28" id="filter1">
    <title>filter1</title>
    <path d="M21.922 4.609a.984.984 0 01-.219 1.094L14 13.406V25c0 .406-.25.766-.609.922A1.158 1.158 0 0113 26a.932.932 0 01-.703-.297l-4-4A.996.996 0 018 21v-7.594L.297 5.703a.984.984 0 01-.219-1.094C.234 4.25.594 4 1 4h20c.406 0 .766.25.922.609z"></path>
  </symbol>
   <symbol xmlns="http://www.w3.org/2000/svg" viewBox="0 0 17.03 17" id="blog-search">
    <path d="M16.44 17.014a.6.6 0 01-.42-.174l-5.3-5.3a6.515 6.515 0 11.84-.839l5.3 5.3a.6.6 0 010 .839.6.6 0 01-.42.174zM6.54 1.181a5.344 5.344 0 105.35 5.344 5.351 5.351 0 00-5.35-5.344z" fill-rule="evenodd"></path>
  </symbol>
    <symbol xmlns="http://www.w3.org/2000/svg" viewBox="0 0 26 28" id="calendar">
    <title>calendar</title>
    <path d="M2 26h4.5v-4.5H2V26zm5.5 0h5v-4.5h-5V26zM2 20.5h4.5v-5H2v5zm5.5 0h5v-5h-5v5zm-5.5-6h4.5V10H2v4.5zM13.5 26h5v-4.5h-5V26zm-6-11.5h5V10h-5v4.5zm12 11.5H24v-4.5h-4.5V26zm-6-5.5h5v-5h-5v5zM8 7V2.5c0-.266-.234-.5-.5-.5h-1c-.266 0-.5.234-.5.5V7c0 .266.234.5.5.5h1c.266 0 .5-.234.5-.5zm11.5 13.5H24v-5h-4.5v5zm-6-6h5V10h-5v4.5zm6 0H24V10h-4.5v4.5zM20 7V2.5c0-.266-.234-.5-.5-.5h-1c-.266 0-.5.234-.5.5V7c0 .266.234.5.5.5h1c.266 0 .5-.234.5-.5zm6-1v20c0 1.094-.906 2-2 2H2c-1.094 0-2-.906-2-2V6c0-1.094.906-2 2-2h2V2.5C4 1.125 5.125 0 6.5 0h1C8.875 0 10 1.125 10 2.5V4h6V2.5C16 1.125 17.125 0 18.5 0h1C20.875 0 22 1.125 22 2.5V4h2c1.094 0 2 .906 2 2z"></path>
  </symbol>
  <symbol xmlns="http://www.w3.org/2000/svg" viewBox="0 0 24 28" id="user">
    <title>user-o</title>
    <path d="M18.766 12.25c2.203.641 5.234 2.812 5.234 9.922C24 25.391 21.609 28 18.672 28H5.328C2.39 28 0 25.391 0 22.172c0-7.109 3.031-9.281 5.234-9.922A7.914 7.914 0 014 8c0-4.406 3.594-8 8-8s8 3.594 8 8a7.911 7.911 0 01-1.234 4.25zM12 2C8.687 2 6 4.688 6 8s2.688 6 6 6 6-2.688 6-6-2.688-6-6-6zm6.672 24C20.5 26 22 24.297 22 22.172c0-4.922-1.656-8-4.75-8.156C15.844 15.25 14.016 16 12 16s-3.844-.75-5.25-1.984C3.656 14.172 2 17.25 2 22.172 2 24.297 3.5 26 5.328 26h13.344z"></path>
  </symbol>
  <symbol xmlns="http://www.w3.org/2000/svg" viewBox="0 0 22 9" id="right-arrow">
    <path d="M.3 5.47h16.948l-.1 2.86a.279.279 0 00-.084.2.3.3 0 00.084.21l.172.17a.276.276 0 00.408 0L21.92 4.7a.283.283 0 00.084-.2.307.307 0 00-.084-.21L17.728.08a.3.3 0 00-.408 0l-.172.17a.3.3 0 00-.084.21.3.3 0 00.084.2l.113 2.86H.292a.3.3 0 00-.292.3v1.37a.288.288 0 00.3.28z" fill-rule="evenodd"></path>
  </symbol>
  <!-- SOCIALS -->
   <symbol xmlns="http://www.w3.org/2000/svg" viewBox="0 0 32 32" id="facebook">
    <title>facebook</title>
    <path d="M19 6h5V0h-5c-3.86 0-7 3.14-7 7v3H8v6h4v16h6V16h5l1-6h-6V7c0-.542.458-1 1-1z"></path>
  </symbol>
  <symbol xmlns="http://www.w3.org/2000/svg" viewBox="0 0 32 32" id="google-plus">
    <title>google-plus</title>
    <path d="M10.181 14.294v3.494h5.775c-.231 1.5-1.744 4.394-5.775 4.394-3.475 0-6.313-2.881-6.313-6.431S6.706 9.32 10.181 9.32c1.981 0 3.3.844 4.056 1.569l2.762-2.662c-1.775-1.656-4.075-2.662-6.819-2.662C4.549 5.571-.001 10.121-.001 15.753s4.55 10.181 10.181 10.181c5.875 0 9.775-4.131 9.775-9.95a9.27 9.27 0 00-.163-1.688h-9.613zM32 14h-3v-3h-3v3h-3v3h3v3h3v-3h3z"></path>
  </symbol>
  <symbol xmlns="http://www.w3.org/2000/svg" viewBox="0 0 32 32" id="instagram">
    <title>instagram</title>
    <path d="M16 2.881c4.275 0 4.781.019 6.462.094 1.563.069 2.406.331 2.969.55a4.952 4.952 0 011.837 1.194 5.015 5.015 0 011.2 1.838c.219.563.481 1.412.55 2.969.075 1.688.094 2.194.094 6.463s-.019 4.781-.094 6.463c-.069 1.563-.331 2.406-.55 2.969a4.94 4.94 0 01-1.194 1.837 5.02 5.02 0 01-1.837 1.2c-.563.219-1.413.481-2.969.55-1.688.075-2.194.094-6.463.094s-4.781-.019-6.463-.094c-1.563-.069-2.406-.331-2.969-.55a4.952 4.952 0 01-1.838-1.194 5.02 5.02 0 01-1.2-1.837c-.219-.563-.481-1.413-.55-2.969-.075-1.688-.094-2.194-.094-6.463s.019-4.781.094-6.463c.069-1.563.331-2.406.55-2.969a4.964 4.964 0 011.194-1.838 5.015 5.015 0 011.838-1.2c.563-.219 1.412-.481 2.969-.55 1.681-.075 2.188-.094 6.463-.094zM16 0c-4.344 0-4.887.019-6.594.094-1.7.075-2.869.35-3.881.744-1.056.412-1.95.956-2.837 1.85a7.833 7.833 0 00-1.85 2.831C.444 6.538.169 7.7.094 9.4.019 11.113 0 11.656 0 16s.019 4.887.094 6.594c.075 1.7.35 2.869.744 3.881.413 1.056.956 1.95 1.85 2.837a7.82 7.82 0 002.831 1.844c1.019.394 2.181.669 3.881.744 1.706.075 2.25.094 6.594.094s4.888-.019 6.594-.094c1.7-.075 2.869-.35 3.881-.744 1.05-.406 1.944-.956 2.831-1.844s1.438-1.781 1.844-2.831c.394-1.019.669-2.181.744-3.881.075-1.706.094-2.25.094-6.594s-.019-4.887-.094-6.594c-.075-1.7-.35-2.869-.744-3.881a7.506 7.506 0 00-1.831-2.844A7.82 7.82 0 0026.482.843C25.463.449 24.301.174 22.601.099c-1.712-.081-2.256-.1-6.6-.1z"></path>
    <path d="M16 7.781c-4.537 0-8.219 3.681-8.219 8.219s3.681 8.219 8.219 8.219 8.219-3.681 8.219-8.219A8.221 8.221 0 0016 7.781zm0 13.55a5.331 5.331 0 110-10.663 5.331 5.331 0 010 10.663zM26.462 7.456a1.919 1.919 0 11-3.838 0 1.919 1.919 0 013.838 0z"></path>
  </symbol>
  <symbol xmlns="http://www.w3.org/2000/svg" viewBox="0 0 32 32" id="twitter">
    <title>twitter</title>
    <path d="M32 7.075a12.941 12.941 0 01-3.769 1.031 6.601 6.601 0 002.887-3.631 13.21 13.21 0 01-4.169 1.594A6.565 6.565 0 0022.155 4a6.563 6.563 0 00-6.563 6.563c0 .512.056 1.012.169 1.494A18.635 18.635 0 012.23 5.195a6.56 6.56 0 00-.887 3.3 6.557 6.557 0 002.919 5.463 6.565 6.565 0 01-2.975-.819v.081a6.565 6.565 0 005.269 6.437 6.574 6.574 0 01-2.968.112 6.588 6.588 0 006.131 4.563 13.17 13.17 0 01-9.725 2.719 18.568 18.568 0 0010.069 2.95c12.075 0 18.681-10.006 18.681-18.681 0-.287-.006-.569-.019-.85A13.216 13.216 0 0032 7.076z"></path>
  </symbol>
   <symbol xmlns="http://www.w3.org/2000/svg" viewBox="0 0 24 24" id="arrow-small">
    <title>arrow-right1</title>
    <path d="M11.293 5.707L16.586 11H5a1 1 0 000 2h11.586l-5.293 5.293a.999.999 0 101.414 1.414l7-7a1.006 1.006 0 000-1.414l-7-7a.999.999 0 10-1.414 1.414z"></path>
  </symbol>
  <!-- FORM -->
    <symbol xmlns="http://www.w3.org/2000/svg" viewBox="0 0 18 12.38" id="letter">
    <path d="M16.71 12.37H1.29A1.262 1.262 0 010 11.14v-9.9A1.27 1.27 0 011.29 0h15.42A1.27 1.27 0 0118 1.24v9.9a1.262 1.262 0 01-1.29 1.23zM1.29.83a.417.417 0 00-.43.41v9.9a.423.423 0 00.43.41h15.42a.423.423 0 00.43-.41v-9.9a.417.417 0 00-.43-.41H1.29zM9 6.42a1.319 1.319 0 01-.74-.23L.48.95a.4.4 0 01-.1-.57.428.428 0 01.59-.1l7.78 5.24a.454.454 0 00.5 0L17.03.28a.428.428 0 01.59.1.4.4 0 01-.1.57L9.74 6.19a1.319 1.319 0 01-.74.23zm8.32 5.71a.423.423 0 01-.3-.12L10.4 5.65a.423.423 0 010-.59.448.448 0 01.61 0l6.61 6.37a.394.394 0 010 .58.423.423 0 01-.3.12zm-16.64 0a.423.423 0 01-.3-.12.394.394 0 010-.58l6.61-6.37a.448.448 0 01.61 0 .423.423 0 010 .59L.98 12.01a.423.423 0 01-.3.12z" fill="#436372" fill-rule="evenodd"></path>
  </symbol>
  <symbol xmlns="http://www.w3.org/2000/svg" viewBox="0 0 13.687 13.16" id="user-input">
    <path d="M13.257 13.17H.424a.426.426 0 01-.428-.42 6.85 6.85 0 0113.689 0 .426.426 0 01-.428.42zm-12.39-.83h11.947a6.011 6.011 0 00-11.947 0zM6.841 7a3.5 3.5 0 113.636-3.5A3.574 3.574 0 016.841 7zm0-6.17a2.672 2.672 0 102.78 2.67A2.732 2.732 0 006.841.83z" fill="#436372" fill-rule="evenodd"></path>
  </symbol>
  <symbol xmlns="http://www.w3.org/2000/svg" viewBox="0 0 18 14.81" id="comment">
    <path d="M3 14.81a.415.415 0 01-.16-.03.42.42 0 01-.27-.38v-2.07H1.29A1.262 1.262 0 010 11.1V1.23A1.262 1.262 0 011.29 0h15.42A1.262 1.262 0 0118 1.23v9.87a1.262 1.262 0 01-1.29 1.23H5.77L3.3 14.69a.423.423 0 01-.3.12zM1.29.82a.423.423 0 00-.43.41v9.87a.423.423 0 00.43.41H3a.417.417 0 01.43.41v1.49l1.86-1.78a.407.407 0 01.3-.12h11.12a.423.423 0 00.43-.41V1.23a.423.423 0 00-.43-.41H1.29zm4.77 5.34a.646.646 0 11-.65-.61.63.63 0 01.65.61zm3.58 0a.64.64 0 01-1.28 0A.619.619 0 019 5.55a.626.626 0 01.64.61zm3.35 0a.646.646 0 11-.65-.61.63.63 0 01.65.61z" fill="#436372" fill-rule="evenodd"></path>
  </symbol>
  <!-- CONTROL -->
  <symbol xmlns="http://www.w3.org/2000/svg" viewBox="0 0 32 32" id="equalizer">
    <title>equalizer</title>
    <path d="M18 2c0-1.1-.9-2-2-2s-2 .9-2 2v18h-2v4h2v6c0 1.1.9 2 2 2s2-.9 2-2v-6h2v-4h-2V2zM6 2c0-1.1-.9-2-2-2S2 .9 2 2v10H0v4h2v14c0 1.1.9 2 2 2s2-.9 2-2V16h2v-4H6V2zm26 6h-2V2c0-1.1-.9-2-2-2s-2 .9-2 2v6h-2v4h2v18c0 1.1.9 2 2 2s2-.9 2-2V12h2V8z"></path>
  </symbol>
</svg>